<svg xmlns="http://www.w3.org/2000/svg" style="display:none">
<!-- Nooka icon set. Сетка 24×24, обводка 2, скругления круглые.
     Красится через currentColor. Использование: <svg class="ic"><use href="icons.svg#nk-ai"></use></svg> -->

<!-- ИИ: нейросеть (узлы + связи) -->
<symbol id="nk-ai" viewBox="0 0 24 24" fill="none" stroke="currentColor" stroke-width="2" stroke-linecap="round" stroke-linejoin="round">
  <circle cx="5" cy="6" r="2.1"/><circle cx="5" cy="18" r="2.1"/>
  <circle cx="12" cy="12" r="2.4"/>
  <circle cx="19" cy="7.5" r="2.1"/><circle cx="19" cy="16.5" r="2.1"/>
  <path d="M6.9 7.1 9.9 10.6M6.9 16.9 9.9 13.4M14.3 10.9 17.1 8.7M14.3 13.1 17.1 15.3"/>
</symbol>

<!-- Промпт: реплика с искрой -->
<symbol id="nk-prompt" viewBox="0 0 24 24" fill="none" stroke="currentColor" stroke-width="2" stroke-linecap="round" stroke-linejoin="round">
  <path d="M20 13.5c0 3-2.7 5.2-6.3 5.2-.9 0-1.7-.1-2.5-.4L6.5 20l1.1-3.2C5.4 15.8 4 13.8 4 11.5 4 8 7.6 5.5 12 5.5s8 2.5 8 6z"/>
  <path d="M12 8.6l.85 2.05L15 11.5l-2.15.85L12 14.4l-.85-2.05L9 11.5l2.15-.85z"/>
</symbol>

<!-- Физика: атом -->
<symbol id="nk-phys" viewBox="0 0 24 24" fill="none" stroke="currentColor" stroke-width="2" stroke-linecap="round" stroke-linejoin="round">
  <circle cx="12" cy="12" r="2"/>
  <ellipse cx="12" cy="12" rx="9.5" ry="4"/>
  <ellipse cx="12" cy="12" rx="9.5" ry="4" transform="rotate(60 12 12)"/>
  <ellipse cx="12" cy="12" rx="9.5" ry="4" transform="rotate(120 12 12)"/>
</symbol>

<!-- Химия: колба с пузырьками -->
<symbol id="nk-chem" viewBox="0 0 24 24" fill="none" stroke="currentColor" stroke-width="2" stroke-linecap="round" stroke-linejoin="round">
  <path d="M9.5 3v5.2L4.6 17a2.6 2.6 0 0 0 2.25 3.9h10.3A2.6 2.6 0 0 0 19.4 17l-4.9-8.8V3"/>
  <path d="M8.5 3h7"/><path d="M6.8 14.5h10.4"/>
  <circle cx="11" cy="17.4" r="1"/><circle cx="14.4" cy="18.4" r=".7"/>
</symbol>

<!-- Код: блоки программы -->
<symbol id="nk-code" viewBox="0 0 24 24" fill="none" stroke="currentColor" stroke-width="2" stroke-linecap="round" stroke-linejoin="round">
  <rect x="3" y="4" width="11" height="5.2" rx="1.8"/>
  <rect x="7" y="14.8" width="11" height="5.2" rx="1.8"/>
  <path d="M17.5 6.6 20.5 6.6M6.5 17.4 3.5 17.4"/>
  <path d="M14 9.2v2.4a2 2 0 0 0 2 2h1"/>
</symbol>

<!-- Астрономия: планета -->
<symbol id="nk-space" viewBox="0 0 24 24" fill="none" stroke="currentColor" stroke-width="2" stroke-linecap="round" stroke-linejoin="round">
  <circle cx="12" cy="11.5" r="6.2"/>
  <ellipse cx="12" cy="11.5" rx="11" ry="3.6" transform="rotate(-22 12 11.5)"/>
</symbol>

<!-- Инженерия: шестерня -->
<symbol id="nk-robo" viewBox="0 0 24 24" fill="none" stroke="currentColor" stroke-width="2" stroke-linecap="round" stroke-linejoin="round">
  <circle cx="12" cy="12" r="3.1"/>
  <path d="M12 2.6v3M12 18.4v3M21.4 12h-3M5.6 12h-3M18.6 5.4l-2.1 2.1M7.5 16.5l-2.1 2.1M18.6 18.6l-2.1-2.1M7.5 7.5 5.4 5.4"/>
</symbol>

<!-- Биология: ДНК -->
<symbol id="nk-bio" viewBox="0 0 24 24" fill="none" stroke="currentColor" stroke-width="2" stroke-linecap="round" stroke-linejoin="round">
  <path d="M7 3c0 5 10 5 10 9s-10 4-10 9"/>
  <path d="M17 3c0 5-10 5-10 9s10 4 10 9"/>
  <path d="M8.4 7h7.2M8.4 17h7.2M7.4 12h9.2"/>
</symbol>

<!-- Экология: лист -->
<symbol id="nk-eco" viewBox="0 0 24 24" fill="none" stroke="currentColor" stroke-width="2" stroke-linecap="round" stroke-linejoin="round">
  <path d="M4.5 19.5c-2-6 1.5-13.5 15-14.5.5 8.5-4 15-11 15-1.6 0-3-.2-4-.5z"/>
  <path d="M4.8 19.2C8 15 11.5 12.4 16 10.6"/>
</symbol>

<!-- Математика: линейка/угол -->
<symbol id="nk-math" viewBox="0 0 24 24" fill="none" stroke="currentColor" stroke-width="2" stroke-linecap="round" stroke-linejoin="round">
  <path d="M3.5 20.5h17L3.5 3.5z"/>
  <path d="M3.5 14.2h4M3.5 9.6h2.6M8.6 20.5v-3.2M13.4 20.5v-2.4"/>
</symbol>

<!-- География: глобус -->
<symbol id="nk-geo" viewBox="0 0 24 24" fill="none" stroke="currentColor" stroke-width="2" stroke-linecap="round" stroke-linejoin="round">
  <circle cx="12" cy="12" r="9"/>
  <path d="M3.2 9.6h17.6M3.2 14.4h17.6"/>
  <ellipse cx="12" cy="12" rx="4" ry="9"/>
</symbol>

<!-- Методика: диплом/шапочка -->
<symbol id="nk-method" viewBox="0 0 24 24" fill="none" stroke="currentColor" stroke-width="2" stroke-linecap="round" stroke-linejoin="round">
  <path d="M2.5 8.5 12 4l9.5 4.5L12 13z"/>
  <path d="M6.5 10.6v4.6c0 1.9 2.5 3.3 5.5 3.3s5.5-1.4 5.5-3.3v-4.6"/>
  <path d="M21.5 8.5v5"/>
</symbol>

<!-- Безопасность: щит -->
<symbol id="nk-shield" viewBox="0 0 24 24" fill="none" stroke="currentColor" stroke-width="2" stroke-linecap="round" stroke-linejoin="round">
  <path d="M12 2.8 4.5 6v6c0 4.6 3.2 8 7.5 9.2 4.3-1.2 7.5-4.6 7.5-9.2V6z"/>
  <path d="M8.8 12.2l2.3 2.3 4.1-4.6"/>
</symbol>

<!-- Прогресс: график вверх -->
<symbol id="nk-progress" viewBox="0 0 24 24" fill="none" stroke="currentColor" stroke-width="2" stroke-linecap="round" stroke-linejoin="round">
  <path d="M3.5 20.5h17"/>
  <path d="M6.5 20.5v-5M11 20.5v-9M15.5 20.5v-6M20 20.5v-12"/>
</symbol>

<!-- Шаг 1: планета/выбор мира -->
<symbol id="nk-world" viewBox="0 0 24 24" fill="none" stroke="currentColor" stroke-width="2" stroke-linecap="round" stroke-linejoin="round">
  <circle cx="12" cy="12" r="8.2"/>
  <path d="M4.4 9.2c2.6 1.6 5.3 1.2 6.4 3.1 1 1.8-.6 3-.2 4.6.2 1 1 1.7 1.6 2.2"/>
  <path d="M19.4 9.6c-1.6.6-3.4.2-4.2-.9-.7-1-.2-2.3.7-2.9"/>
</symbol>

<!-- Шаг 2: геймпад -->
<symbol id="nk-play" viewBox="0 0 24 24" fill="none" stroke="currentColor" stroke-width="2" stroke-linecap="round" stroke-linejoin="round">
  <path d="M7.5 7.5h9a4.5 4.5 0 0 1 4.4 3.6l.7 4.1a2.6 2.6 0 0 1-4.7 1.9L15.7 15H8.3l-1.2 2.1a2.6 2.6 0 0 1-4.7-1.9l.7-4.1A4.5 4.5 0 0 1 7.5 7.5z"/>
  <path d="M6.6 11.2v2M5.6 12.2h2M16.4 11.4h.01M18 13.2h.01"/>
</symbol>

<!-- Ракета (финальный CTA) -->
<symbol id="nk-rocket" viewBox="0 0 24 24" fill="none" stroke="currentColor" stroke-width="2" stroke-linecap="round" stroke-linejoin="round">
  <path d="M12 2.5c3 2.4 4.6 5.9 4.6 9.6L12 17.2 7.4 12.1c0-3.7 1.6-7.2 4.6-9.6z"/>
  <circle cx="12" cy="10" r="1.9"/>
  <path d="M7.4 12.1 4.6 14.4l1.2 3.2 2.6-1.4M16.6 12.1l2.8 2.3-1.2 3.2-2.6-1.4"/>
  <path d="M10.6 18.6c.5 1.4 1.4 2.4 1.4 2.4s.9-1 1.4-2.4"/>
</symbol>

<!-- Галочка (безопасность в герое) -->
<symbol id="nk-check" viewBox="0 0 24 24" fill="none" stroke="currentColor" stroke-width="2.4" stroke-linecap="round" stroke-linejoin="round">
  <path d="M4.5 12.5 9.5 17.5 19.5 6.5"/>
</symbol>
</svg>
