<svg xmlns="http://www.w3.org/2000/svg" viewBox="0 0 800 480" font-family="'Space Grotesk','Arial Rounded MT Bold',sans-serif">
<defs>
<linearGradient id="bg" x1="0" y1="0" x2="1" y2="1"><stop offset="0" stop-color="#1e1b4b"/><stop offset="1" stop-color="#312e81"/></linearGradient>
<linearGradient id="node" x1="0" y1="0" x2="0" y2="1"><stop offset="0" stop-color="#a78bfa"/><stop offset="1" stop-color="#7B2FFF"/></linearGradient>
</defs>
<rect width="800" height="480" fill="url(#bg)"/>
<circle cx="700" cy="60" r="2.5" fill="#fff" opacity=".7"/><circle cx="620" cy="140" r="1.5" fill="#fff" opacity=".5"/><circle cx="90" cy="90" r="2" fill="#fff" opacity=".6"/><circle cx="180" cy="420" r="1.5" fill="#fff" opacity=".4"/><circle cx="740" cy="380" r="2" fill="#fff" opacity=".5"/>
<!-- нейросеть -->
<g stroke="#6d5ae6" stroke-width="2" opacity=".85">
<line x1="180" y1="160" x2="400" y2="120"/><line x1="180" y1="160" x2="400" y2="240"/><line x1="180" y1="300" x2="400" y2="240"/><line x1="180" y1="300" x2="400" y2="360"/><line x1="180" y1="160" x2="400" y2="360"/><line x1="180" y1="300" x2="400" y2="120"/>
<line x1="400" y1="120" x2="620" y2="240"/><line x1="400" y1="240" x2="620" y2="240"/><line x1="400" y1="360" x2="620" y2="240"/>
</g>
<g>
<circle cx="180" cy="160" r="34" fill="url(#node)"/><circle cx="180" cy="300" r="34" fill="url(#node)"/>
<circle cx="400" cy="120" r="30" fill="#4c3fd4"/><circle cx="400" cy="240" r="30" fill="#4c3fd4"/><circle cx="400" cy="360" r="30" fill="#4c3fd4"/>
<circle cx="620" cy="240" r="40" fill="#FFE141"/>
<text x="620" y="252" text-anchor="middle" font-size="30">🤖</text>
<text x="180" y="171" text-anchor="middle" font-size="26">📊</text><text x="180" y="311" text-anchor="middle" font-size="26">🖼️</text>
</g>
<!-- плашка -->
<rect x="40" y="386" width="380" height="60" rx="18" fill="#111118" opacity=".82"/>
<text x="64" y="412" font-size="19" font-weight="800" fill="#fff">Нейро Академия</text>
<text x="64" y="434" font-size="13" fill="#c4b5fd">Миссия: научи нейросеть отличать кота от пиццы</text>
<rect x="640" y="30" width="130" height="34" rx="17" fill="#FFE141"/>
<text x="705" y="52" text-anchor="middle" font-size="14" font-weight="800" fill="#111118">9 уровней</text>
</svg>
