<svg xmlns="http://www.w3.org/2000/svg" viewBox="0 0 800 480" font-family="'Space Grotesk','Arial Rounded MT Bold',sans-serif">
<defs>
<radialGradient id="bg" cx=".3" cy=".25" r="1.2"><stop offset="0" stop-color="#059669"/><stop offset="1" stop-color="#064E3B"/></radialGradient>
<radialGradient id="cell" cx=".4" cy=".35" r="1"><stop offset="0" stop-color="#D1FAE5"/><stop offset="1" stop-color="#6EE7B7"/></radialGradient>
</defs>
<rect width="800" height="480" fill="url(#bg)"/>
<g fill="#A7F3D0" opacity=".35"><circle cx="90" cy="80" r="6"/><circle cx="710" cy="60" r="8"/><circle cx="60" cy="340" r="7"/><circle cx="750" cy="300" r="5"/><circle cx="400" cy="40" r="5"/></g>
<!-- клетка -->
<ellipse cx="270" cy="225" rx="185" ry="145" fill="url(#cell)"/>
<ellipse cx="270" cy="225" rx="185" ry="145" fill="none" stroke="#FFE141" stroke-width="8" stroke-dasharray="2 18" stroke-linecap="round"/>
<circle cx="245" cy="210" r="56" fill="#7B2FFF"/><circle cx="245" cy="210" r="30" fill="#A855F7"/><circle cx="236" cy="200" r="10" fill="#EDE9FE"/>
<circle cx="355" cy="165" r="18" fill="#FF5038"/><circle cx="170" cy="290" r="15" fill="#3B82F6"/><circle cx="345" cy="290" r="13" fill="#FF9F43"/><circle cx="160" cy="160" r="11" fill="#00C27C"/>
<path d="M300 270 q 24 18 52 8" stroke="#059669" stroke-width="6" fill="none" stroke-linecap="round"/>
<!-- ДНК -->
<g stroke-width="9" stroke-linecap="round" fill="none">
<path d="M580 60 q 66 50 0 100 q -66 50 0 100 q 66 50 0 100" stroke="#FFE141"/>
<path d="M668 60 q -66 50 0 100 q 66 50 0 100 q -66 50 0 100" stroke="#fff"/>
</g>
<g stroke-width="7" stroke-linecap="round">
<line x1="592" y1="110" x2="656" y2="110" stroke="#FF5038"/>
<line x1="575" y1="160" x2="673" y2="160" stroke="#3B82F6"/>
<line x1="592" y1="210" x2="656" y2="210" stroke="#00C27C"/>
<line x1="575" y1="260" x2="673" y2="260" stroke="#A855F7"/>
<line x1="592" y1="310" x2="656" y2="310" stroke="#FF9F43"/>
</g>
<text x="470" y="120" font-size="38">🔬</text><text x="120" y="420" font-size="34">🦠</text>
<rect x="40" y="386" width="440" height="60" rx="18" fill="#111118" opacity=".92"/>
<text x="64" y="412" font-size="19" font-weight="800" fill="#fff">БиоМир</text>
<text x="64" y="434" font-size="13" fill="#A7F3D0">Собери клетку, расшифруй ДНК, оживи экосистему</text>
<rect x="614" y="30" width="156" height="34" rx="17" fill="#FFE141"/>
<text x="692" y="52" text-anchor="middle" font-size="14" font-weight="800" fill="#111118">в разработке</text>
</svg>
