<svg xmlns="http://www.w3.org/2000/svg" viewBox="0 0 800 480" font-family="'Space Grotesk','Arial Rounded MT Bold',sans-serif">
<defs>
<linearGradient id="bg" x1="0" y1="0" x2="1" y2="1"><stop offset="0" stop-color="#dcfce7"/><stop offset="1" stop-color="#86efac"/></linearGradient>
</defs>
<rect width="800" height="480" fill="url(#bg)"/>
<!-- клетка -->
<ellipse cx="270" cy="230" rx="180" ry="140" fill="#fff" opacity=".85"/>
<ellipse cx="270" cy="230" rx="180" ry="140" fill="none" stroke="#00C27C" stroke-width="6" stroke-dasharray="1 12" stroke-linecap="round"/>
<circle cx="250" cy="215" r="52" fill="#00C27C" opacity=".9"/>
<circle cx="250" cy="215" r="24" fill="#065f46"/>
<circle cx="350" cy="170" r="16" fill="#FFE141"/><circle cx="180" cy="290" r="13" fill="#FF5038" opacity=".8"/><circle cx="340" cy="290" r="11" fill="#3B82F6" opacity=".8"/><circle cx="160" cy="170" r="10" fill="#7B2FFF" opacity=".7"/>
<!-- ДНК -->
<g stroke-width="6" stroke-linecap="round" fill="none">
<path d="M580 70 q 60 45 0 90 q -60 45 0 90 q 60 45 0 90" stroke="#00C27C"/>
<path d="M660 70 q -60 45 0 90 q 60 45 0 90 q -60 45 0 90" stroke="#065f46"/>
</g>
<g stroke="#065f46" stroke-width="5" stroke-linecap="round">
<line x1="588" y1="115" x2="652" y2="115"/><line x1="574" y1="160" x2="666" y2="160"/><line x1="588" y1="205" x2="652" y2="205"/><line x1="574" y1="250" x2="666" y2="250"/><line x1="588" y1="295" x2="652" y2="295"/>
</g>
<rect x="40" y="386" width="390" height="60" rx="18" fill="#065f46" opacity=".9"/>
<text x="64" y="412" font-size="19" font-weight="800" fill="#fff">БиоМир</text>
<text x="64" y="434" font-size="13" fill="#a7f3d0">Собери клетку, расшифруй ДНК, запусти экосистему</text>
<rect x="614" y="30" width="156" height="34" rx="17" fill="#111118"/>
<text x="692" y="52" text-anchor="middle" font-size="14" font-weight="800" fill="#fff">в разработке</text>
</svg>
