<svg xmlns="http://www.w3.org/2000/svg" viewBox="0 0 800 480" font-family="'Space Grotesk','Arial Rounded MT Bold',sans-serif">
<defs>
<linearGradient id="bg" x1="0" y1="0" x2="1" y2="1"><stop offset="0" stop-color="#d1fae5"/><stop offset="1" stop-color="#6ee7b7"/></linearGradient>
<linearGradient id="liq" x1="0" y1="0" x2="0" y2="1"><stop offset="0" stop-color="#34d399"/><stop offset="1" stop-color="#059669"/></linearGradient>
</defs>
<rect width="800" height="480" fill="url(#bg)"/>
<!-- колба -->
<g>
<path d="M330 90 h60 v90 l70 150 a20 20 0 0 1 -18 28 h-164 a20 20 0 0 1 -18 -28 l70 -150 z" fill="#fff" opacity=".92"/>
<path d="M295 260 l-25 54 a20 20 0 0 0 18 28 h164 a20 20 0 0 0 18 -28 l-25 -54 z" fill="url(#liq)"/>
<circle cx="330" cy="300" r="8" fill="#a7f3d0"/><circle cx="380" cy="320" r="6" fill="#a7f3d0"/><circle cx="410" cy="295" r="5" fill="#a7f3d0"/>
<circle cx="360" cy="70" r="7" fill="#34d399" opacity=".7"/><circle cx="345" cy="45" r="5" fill="#34d399" opacity=".5"/><circle cx="378" cy="30" r="4" fill="#34d399" opacity=".4"/>
</g>
<!-- молекула -->
<g stroke="#065f46" stroke-width="4">
<line x1="560" y1="150" x2="640" y2="110"/><line x1="560" y1="150" x2="640" y2="200"/><line x1="640" y1="200" x2="720" y2="160"/>
</g>
<circle cx="560" cy="150" r="26" fill="#FF5038"/><circle cx="640" cy="110" r="18" fill="#fff"/><circle cx="640" cy="200" r="22" fill="#3B82F6"/><circle cx="720" cy="160" r="16" fill="#fff"/>
<text x="560" y="158" text-anchor="middle" font-size="18" font-weight="800" fill="#fff">O</text>
<text x="640" y="117" text-anchor="middle" font-size="14" font-weight="800" fill="#065f46">H</text>
<text x="640" y="208" text-anchor="middle" font-size="16" font-weight="800" fill="#fff">C</text>
<text x="720" y="166" text-anchor="middle" font-size="13" font-weight="800" fill="#065f46">H</text>
<!-- пробирки -->
<g>
<rect x="95" y="330" width="34" height="100" rx="17" fill="#fff" opacity=".9"/><rect x="95" y="380" width="34" height="50" rx="17" fill="#FF5038" opacity=".85"/>
<rect x="145" y="350" width="34" height="80" rx="17" fill="#fff" opacity=".9"/><rect x="145" y="390" width="34" height="40" rx="17" fill="#3B82F6" opacity=".85"/>
</g>
<rect x="380" y="386" width="380" height="60" rx="18" fill="#065f46" opacity=".88"/>
<text x="404" y="412" font-size="19" font-weight="800" fill="#fff">Хемо Лаб</text>
<text x="404" y="434" font-size="13" fill="#a7f3d0">Миссия: собери молекулу воды раньше таймера</text>
<rect x="640" y="30" width="130" height="34" rx="17" fill="#111118"/>
<text x="705" y="52" text-anchor="middle" font-size="14" font-weight="800" fill="#fff">3 уровня</text>
</svg>
