<svg xmlns="http://www.w3.org/2000/svg" viewBox="0 0 800 480" font-family="'Space Grotesk','Arial Rounded MT Bold',sans-serif">
<defs>
<linearGradient id="bg" x1="0" y1="0" x2="0" y2="1"><stop offset="0" stop-color="#BAE6FD"/><stop offset="1" stop-color="#D9F99D"/></linearGradient>
</defs>
<rect width="800" height="480" fill="url(#bg)"/>
<circle cx="680" cy="80" r="44" fill="#FFE141"/>
<g stroke="#FFE141" stroke-width="6" stroke-linecap="round"><line x1="680" y1="10" x2="680" y2="26"/><line x1="680" y1="134" x2="680" y2="150"/><line x1="610" y1="80" x2="626" y2="80"/><line x1="734" y1="80" x2="750" y2="80"/><line x1="632" y1="32" x2="643" y2="43"/><line x1="717" y1="117" x2="728" y2="128"/><line x1="728" y1="32" x2="717" y2="43"/><line x1="643" y1="117" x2="632" y2="128"/></g>
<!-- холм -->
<ellipse cx="400" cy="520" rx="520" ry="200" fill="#4ADE80"/>
<!-- ветряк -->
<g>
<path d="M210 330 l 10 -150 h 8 l 10 150z" fill="#fff" stroke="#E5E7EB"/>
<g transform="translate(224 180)">
<circle r="10" fill="#111118"/>
<g fill="#fff" stroke="#D1D5DB"><path d="M0 0 L-14 -86 L14 -70z"/><path d="M0 0 L-14 -86 L14 -70z" transform="rotate(120)"/><path d="M0 0 L-14 -86 L14 -70z" transform="rotate(240)"/></g>
</g>
</g>
<!-- солнечная панель -->
<g transform="translate(360 300)">
<rect x="0" y="0" width="130" height="74" rx="8" fill="#1D4ED8" transform="skewX(-12)"/>
<g stroke="#93C5FD" stroke-width="3" transform="skewX(-12)"><line x1="43" y1="0" x2="43" y2="74"/><line x1="87" y1="0" x2="87" y2="74"/><line x1="0" y1="37" x2="130" y2="37"/></g>
<rect x="52" y="74" width="12" height="30" fill="#6B7280"/>
</g>
<!-- город -->
<g>
<rect x="560" y="250" width="60" height="120" rx="8" fill="#7B2FFF"/>
<rect x="632" y="290" width="52" height="80" rx="8" fill="#A855F7"/>
<g fill="#FFE141"><rect x="572" y="266" width="12" height="12" rx="3"/><rect x="596" y="266" width="12" height="12" rx="3"/><rect x="572" y="294" width="12" height="12" rx="3"/><rect x="596" y="294" width="12" height="12" rx="3"/><rect x="572" y="322" width="12" height="12" rx="3"/><rect x="644" y="304" width="10" height="10" rx="3"/><rect x="662" y="304" width="10" height="10" rx="3"/><rect x="644" y="328" width="10" height="10" rx="3"/></g>
</g>
<!-- провода-энергия -->
<path d="M300 340 Q 420 260 560 300" stroke="#FF5038" stroke-width="5" fill="none" stroke-dasharray="3 12" stroke-linecap="round"/>
<text x="410" y="252" font-size="30">⚡</text>
<text x="90" y="120" font-size="42">🌱</text><text x="480" y="120" font-size="36">☁️</text>
<rect x="40" y="386" width="430" height="60" rx="18" fill="#111118" opacity=".92"/>
<text x="64" y="412" font-size="19" font-weight="800" fill="#fff">ЭкоСфера</text>
<text x="64" y="434" font-size="13" fill="#BBF7D0">Запитай город чистой энергией — без блэкаута</text>
<rect x="614" y="30" width="156" height="34" rx="17" fill="#111118"/>
<text x="692" y="52" text-anchor="middle" font-size="14" font-weight="800" fill="#fff">в разработке</text>
</svg>
