<svg xmlns="http://www.w3.org/2000/svg" viewBox="0 0 800 480" font-family="'Space Grotesk','Arial Rounded MT Bold',sans-serif">
<defs>
<linearGradient id="bg" x1="0" y1="0" x2="1" y2="1"><stop offset="0" stop-color="#FF5038"/><stop offset="1" stop-color="#7B2FFF"/></linearGradient>
</defs>
<rect width="800" height="480" fill="url(#bg)"/>
<g opacity=".18" fill="#fff" font-weight="800">
<text x="60" y="100" font-size="44">π</text><text x="700" y="380" font-size="48">∞</text>
<text x="640" y="120" font-size="40">√</text><text x="90" y="360" font-size="42">%</text>
</g>
<!-- пирамидка из кубиков с числами -->
<g font-weight="800" text-anchor="middle">
<rect x="180" y="270" width="84" height="84" rx="18" fill="#FFE141"/><text x="222" y="325" font-size="38" fill="#111118">3</text>
<rect x="274" y="270" width="84" height="84" rx="18" fill="#fff"/><text x="316" y="325" font-size="38" fill="#7B2FFF">5</text>
<rect x="368" y="270" width="84" height="84" rx="18" fill="#FFE141"/><text x="410" y="325" font-size="38" fill="#111118">8</text>
<rect x="227" y="176" width="84" height="84" rx="18" fill="#fff"/><text x="269" y="231" font-size="38" fill="#FF5038">?</text>
<rect x="321" y="176" width="84" height="84" rx="18" fill="#111118"/><text x="363" y="231" font-size="38" fill="#FFE141">13</text>
<rect x="274" y="82" width="84" height="84" rx="18" fill="#00C27C"/><text x="316" y="137" font-size="38" fill="#fff">21</text>
</g>
<!-- геометрия -->
<g>
<circle cx="600" cy="180" r="58" fill="none" stroke="#FFE141" stroke-width="8"/>
<path d="M560 300 L680 300 L620 216z" fill="none" stroke="#fff" stroke-width="8" stroke-linejoin="round"/>
<rect x="545" y="322" width="64" height="64" rx="12" fill="none" stroke="#4ADE80" stroke-width="8" transform="rotate(12 577 354)"/>
</g>
<text x="480" y="90" font-size="36">🧩</text>
<rect x="40" y="386" width="440" height="60" rx="18" fill="#111118" opacity=".92"/>
<text x="64" y="412" font-size="19" font-weight="800" fill="#fff">Цифрариум</text>
<text x="64" y="434" font-size="13" fill="#FDBA74">Числа, фигуры и шифры — головоломки со вкусом</text>
<rect x="614" y="30" width="156" height="34" rx="17" fill="#FFE141"/>
<text x="692" y="52" text-anchor="middle" font-size="14" font-weight="800" fill="#111118">в разработке</text>
</svg>
