<svg xmlns="http://www.w3.org/2000/svg" viewBox="0 0 800 480" font-family="'Space Grotesk','Arial Rounded MT Bold',sans-serif">
<defs>
<radialGradient id="bg" cx=".35" cy=".2" r="1.3"><stop offset="0" stop-color="#4C1D95"/><stop offset="1" stop-color="#1E1B4B"/></radialGradient>
<linearGradient id="smoke" x1="0" y1="1" x2="0" y2="0"><stop offset="0" stop-color="#A855F7"/><stop offset="1" stop-color="#A855F7" stop-opacity="0"/></linearGradient>
</defs>
<rect width="800" height="480" fill="url(#bg)"/>
<g fill="#C4B5FD" opacity=".5"><circle cx="90" cy="70" r="2.5"/><circle cx="700" cy="50" r="2"/><circle cx="740" cy="210" r="2.5"/><circle cx="60" cy="300" r="2"/><circle cx="420" cy="40" r="2"/></g>
<!-- лампа джинна -->
<g transform="translate(200 330)">
<ellipse cx="0" cy="38" rx="86" ry="14" fill="#2D1B45" opacity=".6"/>
<path d="M-70 0 q -10 -34 30 -40 l 4 -12 h 40 l 4 12 q 60 4 62 44 q 2 30 -40 34 h -60 q -44 -2 -40 -38z" fill="#FFD262"/>
<path d="M-70 0 q -30 -6 -36 -22 q 16 4 30 0" fill="#FFD262"/>
<circle cx="12" cy="-58" r="9" fill="#FFE49E"/>
<path d="M4 -18 q 8 -60 60 -110" stroke="url(#smoke)" stroke-width="26" fill="none" stroke-linecap="round" opacity=".8"/>
</g>
<!-- джинн -->
<g transform="translate(320 130)">
<circle cx="0" cy="0" r="46" fill="#A855F7"/>
<circle cx="-14" cy="-6" r="8" fill="#fff"/><circle cx="14" cy="-6" r="8" fill="#fff"/>
<circle cx="-12" cy="-4" r="4" fill="#1E1B4B"/><circle cx="16" cy="-4" r="4" fill="#1E1B4B"/>
<path d="M-14 16 q 14 12 28 0" stroke="#1E1B4B" stroke-width="4" fill="none" stroke-linecap="round"/>
<path d="M-46 -8 q -18 -30 8 -46 q 4 18 14 24" fill="#A855F7"/>
<path d="M46 -8 q 18 -30 -8 -46 q -4 18 -14 24" fill="#A855F7"/>
</g>
<!-- карточки промпта -->
<g font-size="17" font-weight="800">
<rect x="470" y="110" width="220" height="48" rx="14" fill="#7B2FFF"/><text x="490" y="140" fill="#fff">🟠 рыжий</text>
<rect x="500" y="170" width="220" height="48" rx="14" fill="#FFE141"/><text x="520" y="200" fill="#111118">🐱 кот</text>
<rect x="470" y="230" width="220" height="48" rx="14" fill="#00C27C"/><text x="490" y="260" fill="#fff">😴 спит</text>
<rect x="500" y="290" width="220" height="48" rx="14" fill="#FF5038"/><text x="520" y="320" fill="#fff">🛋️ на диване</text>
</g>
<text x="620" y="90" font-size="30">✨</text><text x="440" y="380" font-size="30">🪄</text>
<rect x="40" y="386" width="450" height="60" rx="18" fill="#111118" opacity=".92"/>
<text x="64" y="412" font-size="19" font-weight="800" fill="#fff">ПромптЛаб</text>
<text x="64" y="434" font-size="13" fill="#C4B5FD">Скажи ИИ-джинну точно — и он нарисует что угодно</text>
</svg>
